<?xml version="1.0" encoding="utf-8"?>
<!-- Generator: Adobe Illustrator 19.0.0, SVG Export Plug-In . SVG Version: 6.00 Build 0)  -->
<svg version="1.1" id="Layer_1" xmlns="http://www.w3.org/2000/svg" xmlns:xlink="http://www.w3.org/1999/xlink" x="0px" y="0px"
	 viewBox="0 0 1080 1734.4" style="enable-background:new 0 0 1080 1734.4;" xml:space="preserve">
<style type="text/css">
	.st0{fill:#242C41;}
	.st1{font-family:'SairaExtraCondensed-Bold';}
	.st2{font-size:129.5174px;}
	.st3{font-family:'Bebas-Regular';}
	.st4{letter-spacing:1;}
	.st5{fill:#A8CBEB;}
	.st6{fill:none;}
</style>
<g>
	<text transform="matrix(1 0 0 1 313.5693 1138.5995)" class="st0 st1 st2">Homea</text>
	<text transform="matrix(1 0 0 1 591.7725 1138.5995)"><tspan x="0" y="0" class="st0 st3 st2 st4">Z</tspan><tspan x="50.8" y="0" class="st0 st3 st2">Z</tspan></text>
	<text transform="matrix(1 0 0 1 692.0195 1138.5995)" class="st0 st1 st2">on</text>
	<path class="st0" d="M367.8,979c19.3-7,39.1-12.5,59.2-16.8c5-1,10.1-2.1,15.1-3c1.4-0.2,2.8-0.5,4.2-0.7l-1-104.9l101.2-47.9V710
		L367,804.7v174.6C367.2,979.2,367.5,979.1,367.8,979"/>
	<path class="st5" d="M646.7,961c8.4,1.5,16.7,3.2,25,5.2c5,1.1,10,2.3,14.9,3.5c4.9,1.3,9.9,2.6,14.8,4c8.3,2.2,16.5,4.9,24.7,7.5
		V804.5l-179.6-94.7v95.8l101.2,47.9L646.7,961z"/>
	<path class="st0" d="M518.8,951.3c5.1-0.2,10.3-0.3,15.4-0.3l15.4,0c10.3,0.4,20.6,0.7,30.8,1.5c3.7,0.2,7.5,0.6,11.2,0.9V888
		l-40.3-20.7l-40.3,21.2v63.1C513.7,951.5,516.3,951.4,518.8,951.3"/>
	<path class="st0" d="M312.5,1013.1c8.5-5.6,17.6-10.4,26.9-14.7c9.3-4.3,18.8-8.2,28.4-11.7c19.3-7,39.1-12.5,59.2-16.8
		c5-1,10.1-2.1,15.1-3c5.1-0.9,10.1-1.7,15.2-2.5c5.1-0.7,10.2-1.4,15.3-2.1l15.4-1.6c5.1-0.5,10.3-0.8,15.4-1.1
		c5.1-0.4,10.3-0.5,15.4-0.7c5.1-0.2,10.3-0.3,15.4-0.3l15.4,0c10.3,0.4,20.6,0.7,30.8,1.5c10.3,0.7,20.5,1.8,30.7,3
		c20.4,2.7,40.6,6,60.6,10.7c5,1.1,10,2.3,14.9,3.5c4.9,1.3,9.9,2.6,14.8,4c9.9,2.6,19.6,5.9,29.3,9c4.9,1.5,9.6,3.3,14.4,5.1
		c4.8,1.8,9.6,3.5,14.3,5.4c9.5,3.8,18.8,7.9,28,12.2c-5-0.9-10-1.9-15-2.9c-5-1-9.9-2.1-14.9-3.1c-5-0.9-9.9-1.9-14.9-2.8
		c-5-1-9.9-2.1-14.9-2.8l-14.9-2.7c-2.5-0.4-4.9-1-7.4-1.3l-7.4-1.2c-5-0.8-9.9-1.6-14.9-2.4l-14.9-2.1c-9.9-1.5-19.8-2.5-29.8-3.8
		c-4.9-0.7-9.9-1-14.9-1.5c-5-0.5-9.9-1.1-14.9-1.4c-5-0.3-9.9-0.8-14.9-1.1c-5-0.5-9.9-0.6-14.9-0.9c-9.9-0.7-19.9-0.8-29.8-1.2
		c-9.9-0.1-19.9-0.3-29.8-0.1c-10,0-19.9,0.5-29.8,0.9c-19.9,0.9-39.7,2.7-59.5,5.1c-19.8,2.4-39.5,5.6-59.1,9.8
		c-9.8,2-19.6,4.3-29.4,6.8C331.8,1007,322.1,1009.7,312.5,1013.1"/>
</g>
<rect y="0" class="st6" width="1080" height="1734.4"/>
</svg>
